<?xml version="1.0" encoding="UTF-8" standalone="no"?>
<!DOCTYPE svg PUBLIC "-//W3C//DTD SVG 1.1//EN" "http://www.w3.org/Graphics/SVG/1.1/DTD/svg11.dtd">
<svg width="100%" height="100%" viewBox="0 0 1200 628" version="1.1" xmlns="http://www.w3.org/2000/svg" xmlns:xlink="http://www.w3.org/1999/xlink" xml:space="preserve" xmlns:serif="http://www.serif.com/" style="fill-rule:evenodd;clip-rule:evenodd;stroke-linejoin:round;stroke-miterlimit:2;">
    <g id="testWare_Logo.svg" transform="matrix(0.188362,0,0,0.188362,314,314)">
        <g transform="matrix(1,0,0,1,-1667,-1667)">
            <clipPath id="_clip1">
                <rect x="0" y="0" width="3334" height="3334"/>
            </clipPath>
            <g clip-path="url(#_clip1)">
                <g id="Ebene1">
                    <rect x="0" y="0" width="3333.33" height="3333.33" style="fill:rgb(199,211,1);fill-opacity:0.44;"/>
                </g>
                <path d="M3333.33,-0L0,-0L0,3333.33L1666.67,3333.33" style="fill:rgb(199,211,1);"/>
                <path d="M0,0L2125,0L2125,483.217L1422.52,483.217L1422.52,2084.89L702.479,2084.89L702.479,483.217L-0,483.217L-0,0Z" style="fill:white;fill-rule:nonzero;"/>
                <g id="Ebene2">
                    <g>
                        <rect x="3009.26" y="3079.77" width="208.593" height="203.952" style="fill:white;fill-rule:nonzero;"/>
                        <path d="M2589.73,2897.94L2589.73,2681.7L3217.86,2681.7L3217.86,2897.94L2589.73,2897.94ZM2319.03,2897.94L2319.03,2681.7L2477.23,2681.7L2477.23,2897.94L2319.03,2897.94Z" style="fill:white;fill-rule:nonzero;"/>
                        <path d="M2903.79,2584.64C2772.93,2584.64 2686.8,2563.55 2645.39,2521.37C2603.99,2479.18 2583.28,2388.88 2583.28,2250.45C2583.28,2110.39 2605.35,2021.31 2649.49,1983.23C2693.63,1945.14 2780.94,1926.1 2911.41,1926.1C3041.1,1926.1 3125.66,1948.62 3165.12,1993.67C3204.57,2038.72 3224.3,2125.95 3224.3,2255.37C3224.3,2390.93 3201.64,2479.8 3156.33,2521.98C3111.02,2563.75 3026.84,2584.64 2903.79,2584.64ZM2904.96,2368.4C2979.96,2368.4 3025.66,2360.62 3042.07,2345.06C3058.09,2329.49 3066.1,2297.76 3066.1,2249.84C3066.1,2202.33 3056.52,2172.64 3037.38,2160.76C3017.85,2148.48 2973.32,2142.33 2903.79,2142.33C2833.87,2142.33 2789.34,2148.89 2770.2,2161.99C2751.06,2174.69 2741.49,2203.97 2741.49,2249.84C2741.49,2302.67 2751.25,2335.64 2770.78,2348.74C2790.31,2361.85 2835.04,2368.4 2904.96,2368.4Z" style="fill:white;fill-rule:nonzero;"/>
                    </g>
                </g>
            </g>
        </g>
    </g>
    <g transform="matrix(1.46502,0,0,1.46502,-399.096,-138.575)">
        <path d="M744.946,493.607L744.946,461.615L755.681,461.615C760.196,461.615 763.712,463.154 766.227,466.232C768.743,469.31 770.001,473.075 770.001,477.529C770.001,482.044 768.774,485.853 766.321,488.954C763.868,492.056 760.759,493.607 756.993,493.607L744.946,493.607ZM748.954,490.208L755.446,490.208C758.884,490.208 761.493,489.021 763.274,486.646C765.056,484.271 765.946,481.138 765.946,477.247C765.946,474.091 765.098,471.255 763.403,468.74C761.708,466.224 759.056,464.966 755.446,464.966L748.954,464.966L748.954,490.208Z" style="fill:rgb(199,211,1);fill-rule:nonzero;"/>
    </g>
    <g transform="matrix(1.46502,0,0,1.46502,-399.096,-138.575)">
        <path d="M784.157,494.263C780.907,494.263 778.372,493.059 776.552,490.65C774.731,488.242 773.821,485.254 773.821,481.689C773.821,477.919 774.845,474.909 776.891,472.657C778.938,470.405 781.485,469.279 784.532,469.279C787.798,469.279 790.372,470.463 792.255,472.833C794.138,475.202 795.079,478.162 795.079,481.712C795.079,485.403 794.063,488.418 792.032,490.756C790.001,493.094 787.376,494.263 784.157,494.263ZM784.438,491.216C786.313,491.216 787.884,490.443 789.149,488.896C790.415,487.349 791.048,484.943 791.048,481.677C791.048,478.396 790.384,476.017 789.056,474.54C787.727,473.064 786.173,472.325 784.391,472.325C782.563,472.325 781.016,473.072 779.751,474.564C778.485,476.056 777.852,478.419 777.852,481.654C777.852,485.075 778.485,487.525 779.751,489.001C781.016,490.478 782.579,491.216 784.438,491.216Z" style="fill:rgb(199,211,1);fill-rule:nonzero;"/>
    </g>
    <g transform="matrix(1.46502,0,0,1.46502,-399.096,-138.575)">
        <path d="M820.157,493.607L816.343,493.607L809.424,480.39L804.29,486.294L804.29,493.607L800.61,493.607L800.61,461.615L804.29,461.615L804.29,482.122L815.285,469.935L819.22,469.935L811.824,478.246L820.157,493.607Z" style="fill:rgb(199,211,1);fill-rule:nonzero;"/>
    </g>
    <g transform="matrix(1.46502,0,0,1.46502,-399.096,-138.575)">
        <path d="M842.095,493.607L838.766,493.607L838.766,489.083C837.082,492.536 834.57,494.263 831.231,494.263C828.813,494.263 826.914,493.465 825.533,491.87C824.152,490.275 823.462,488.007 823.462,485.067L823.462,469.935L827.141,469.935L827.141,485.052C827.141,487.396 827.63,489.009 828.606,489.892C829.583,490.775 830.657,491.216 831.829,491.216C833.016,491.216 834.091,490.88 835.052,490.208C836.013,489.536 836.813,488.579 837.454,487.337C838.095,486.095 838.415,484.74 838.415,483.271L838.415,469.935L842.095,469.935L842.095,493.607Z" style="fill:rgb(199,211,1);fill-rule:nonzero;"/>
    </g>
    <g transform="matrix(1.46502,0,0,1.46502,-399.096,-138.575)">
        <path d="M881.165,493.607L877.579,493.607L877.579,478.888C877.579,477.372 877.473,476.236 877.263,475.478C877.052,474.72 876.54,474.025 875.727,473.392C874.915,472.759 874.001,472.443 872.985,472.443C871.579,472.443 870.223,473.087 868.919,474.376C867.614,475.665 866.962,477.63 866.962,480.271L866.962,493.607L863.399,493.607L863.399,478.021C863.399,475.943 862.903,474.474 861.911,473.615C860.919,472.755 859.876,472.325 858.782,472.325C857.22,472.325 855.86,472.997 854.704,474.341C853.548,475.685 852.97,477.388 852.97,479.45L852.97,493.607L849.454,493.607L849.454,469.935L852.618,469.935L852.618,474.482C854.384,471.013 856.813,469.279 859.907,469.279C861.61,469.279 863.056,469.833 864.243,470.943C865.431,472.052 866.196,473.388 866.54,474.95C868.165,471.169 870.657,469.279 874.016,469.279C875.626,469.279 877.036,469.74 878.247,470.661C879.458,471.583 880.247,472.642 880.614,473.837C880.981,475.032 881.165,476.716 881.165,478.888L881.165,493.607Z" style="fill:rgb(199,211,1);fill-rule:nonzero;"/>
    </g>
    <g transform="matrix(1.46502,0,0,1.46502,-399.096,-138.575)">
        <path d="M904.157,486.552L907.579,487.255C906.954,489.278 905.735,490.951 903.923,492.276C902.11,493.601 899.977,494.263 897.524,494.263C894.29,494.263 891.673,493.125 889.673,490.85C887.673,488.574 886.673,485.591 886.673,481.9C886.673,478.131 887.712,475.085 889.79,472.762C891.868,470.44 894.477,469.279 897.618,469.279C900.712,469.279 903.2,470.349 905.083,472.49C906.966,474.63 907.931,477.833 907.977,482.099L890.774,482.099C890.774,485.677 891.524,488.091 893.024,489.341C894.524,490.591 896.11,491.216 897.782,491.216C900.798,491.216 902.923,489.661 904.157,486.552ZM903.946,479.357C903.915,478.029 903.696,476.849 903.29,475.818C902.884,474.786 902.196,473.907 901.227,473.181C900.259,472.454 899.095,472.091 897.735,472.091C895.907,472.091 894.356,472.747 893.083,474.06C891.809,475.372 891.095,477.138 890.938,479.357L903.946,479.357Z" style="fill:rgb(199,211,1);fill-rule:nonzero;"/>
    </g>
    <g transform="matrix(1.46502,0,0,1.46502,-399.096,-138.575)">
        <path d="M932.165,493.607L928.72,493.607L928.72,478.396C928.72,476.208 928.243,474.669 927.29,473.779C926.337,472.888 925.181,472.443 923.821,472.443C921.946,472.443 920.372,473.193 919.098,474.693C917.825,476.193 917.188,478.169 917.188,480.622L917.188,493.607L913.509,493.607L913.509,469.935L916.931,469.935L916.931,474.294C918.852,470.95 921.345,469.279 924.407,469.279C926.173,469.279 927.677,469.736 928.919,470.65C930.161,471.564 931.013,472.591 931.473,473.732C931.934,474.872 932.165,476.935 932.165,479.919L932.165,493.607Z" style="fill:rgb(199,211,1);fill-rule:nonzero;"/>
    </g>
    <g transform="matrix(1.46502,0,0,1.46502,-399.096,-138.575)">
        <path d="M950.259,491.099L950.259,494.005C948.962,494.177 947.837,494.263 946.884,494.263C942.306,494.263 940.016,491.87 940.016,487.083L940.016,472.818L935.821,472.818L935.821,469.935L940.016,469.935L940.181,463.982L943.602,463.654L943.602,469.935L948.899,469.935L948.899,472.818L943.602,472.818L943.602,487.696C943.602,490.136 944.868,491.357 947.399,491.357C948.243,491.357 949.196,491.271 950.259,491.099Z" style="fill:rgb(199,211,1);fill-rule:nonzero;"/>
    </g>
    <g transform="matrix(1.46502,0,0,1.46502,-399.096,-138.575)">
        <path d="M972.806,493.607L969.173,493.607C969.032,492.857 968.891,491.435 968.751,489.341C967.126,492.622 964.36,494.263 960.454,494.263C957.798,494.263 955.759,493.559 954.337,492.15C952.915,490.742 952.204,489.052 952.204,487.08C952.204,484.686 953.22,482.718 955.251,481.177C957.282,479.635 960.735,478.865 965.61,478.865C966.266,478.865 967.313,478.896 968.751,478.958C968.751,477.083 968.606,475.728 968.317,474.892C968.028,474.056 967.415,473.388 966.477,472.888C965.54,472.388 964.306,472.138 962.774,472.138C959.04,472.138 956.868,473.56 956.259,476.404L952.86,475.818C953.688,471.458 957.173,469.279 963.313,469.279C966.579,469.279 968.895,470.001 970.263,471.447C971.63,472.892 972.313,475.396 972.313,478.958L972.313,489.013C972.313,490.685 972.477,492.216 972.806,493.607ZM968.751,481.771C967.251,481.677 966.11,481.63 965.329,481.63C962.423,481.63 960.165,482.108 958.556,483.063C956.946,484.018 956.141,485.412 956.141,487.245C956.141,488.404 956.575,489.391 957.442,490.205C958.309,491.02 959.563,491.427 961.204,491.427C963.423,491.427 965.247,490.62 966.677,489.007C968.106,487.394 968.821,485.499 968.821,483.321C968.821,482.883 968.798,482.366 968.751,481.771Z" style="fill:rgb(199,211,1);fill-rule:nonzero;"/>
    </g>
    <g transform="matrix(1.46502,0,0,1.46502,-399.096,-138.575)">
        <path d="M990.407,491.099L990.407,494.005C989.11,494.177 987.985,494.263 987.032,494.263C982.454,494.263 980.165,491.87 980.165,487.083L980.165,472.818L975.97,472.818L975.97,469.935L980.165,469.935L980.329,463.982L983.751,463.654L983.751,469.935L989.048,469.935L989.048,472.818L983.751,472.818L983.751,487.696C983.751,490.136 985.016,491.357 987.548,491.357C988.391,491.357 989.345,491.271 990.407,491.099Z" style="fill:rgb(199,211,1);fill-rule:nonzero;"/>
    </g>
    <g transform="matrix(1.46502,0,0,1.46502,-399.096,-138.575)">
        <path d="M998.235,461.615L998.235,465.716L994.274,465.716L994.274,461.615L998.235,461.615ZM998.118,469.935L998.118,493.607L994.438,493.607L994.438,469.935L998.118,469.935Z" style="fill:rgb(199,211,1);fill-rule:nonzero;"/>
    </g>
    <g transform="matrix(1.46502,0,0,1.46502,-399.096,-138.575)">
        <path d="M1013.94,494.263C1010.69,494.263 1008.15,493.059 1006.33,490.65C1004.51,488.242 1003.6,485.254 1003.6,481.689C1003.6,477.919 1004.63,474.909 1006.67,472.657C1008.72,470.405 1011.27,469.279 1014.31,469.279C1017.58,469.279 1020.15,470.463 1022.04,472.833C1023.92,475.202 1024.86,478.162 1024.86,481.712C1024.86,485.403 1023.85,488.418 1021.81,490.756C1019.78,493.094 1017.16,494.263 1013.94,494.263ZM1014.22,491.216C1016.1,491.216 1017.67,490.443 1018.93,488.896C1020.2,487.349 1020.83,484.943 1020.83,481.677C1020.83,478.396 1020.17,476.017 1018.84,474.54C1017.51,473.064 1015.95,472.325 1014.17,472.325C1012.35,472.325 1010.8,473.072 1009.53,474.564C1008.27,476.056 1007.63,478.419 1007.63,481.654C1007.63,485.075 1008.27,487.525 1009.53,489.001C1010.8,490.478 1012.36,491.216 1014.22,491.216Z" style="fill:rgb(199,211,1);fill-rule:nonzero;"/>
    </g>
    <g transform="matrix(1.46502,0,0,1.46502,-399.096,-138.575)">
        <path d="M1049.05,493.607L1045.6,493.607L1045.6,478.396C1045.6,476.208 1045.13,474.669 1044.17,473.779C1043.22,472.888 1042.06,472.443 1040.7,472.443C1038.83,472.443 1037.26,473.193 1035.98,474.693C1034.71,476.193 1034.07,478.169 1034.07,480.622L1034.07,493.607L1030.39,493.607L1030.39,469.935L1033.81,469.935L1033.81,474.294C1035.74,470.95 1038.23,469.279 1041.29,469.279C1043.06,469.279 1044.56,469.736 1045.8,470.65C1047.04,471.564 1047.89,472.591 1048.36,473.732C1048.82,474.872 1049.05,476.935 1049.05,479.919L1049.05,493.607Z" style="fill:rgb(199,211,1);fill-rule:nonzero;"/>
    </g>
    <g transform="matrix(1,0,0,1,0,-26.693)">
        <g transform="matrix(1.22952,0,0,1.22952,-267.355,114.704)">
            <path d="M884.288,237.194L884.288,249.1L794.57,249.1L794.57,237.194L833.007,237.194L833.007,138.381C821.695,150.194 809.945,159.412 797.757,166.037L797.757,149.912C814.57,141.1 827.601,130.631 836.851,118.506L848.382,118.506L848.382,237.194L884.288,237.194Z" style="fill:rgb(199,211,1);fill-rule:nonzero;"/>
        </g>
        <g transform="matrix(1.22952,0,0,1.22952,-267.355,114.704)">
            <rect x="901.82" y="228.1" width="21" height="21" style="fill:rgb(199,211,1);fill-rule:nonzero;"/>
        </g>
        <g transform="matrix(1.22952,0,0,1.22952,-267.355,114.704)">
            <path d="M990.132,249.1L973.632,249.1C973.632,227.662 978.007,206.803 986.757,186.522C995.507,166.24 1006.23,149.131 1018.91,135.194L949.445,135.194L951.038,121.131L1035.6,121.131L1035.6,130.694C1020.35,149.069 1008.95,168.194 1001.38,188.069C993.82,207.944 990.038,226.819 990.038,244.694C990.038,245.694 990.07,247.162 990.132,249.1Z" style="fill:rgb(199,211,1);fill-rule:nonzero;"/>
        </g>
        <g transform="matrix(1.22952,0,0,1.22952,-267.355,114.704)">
            <path d="M1129.54,249.1L1112.56,249.1L1088.52,210.636L1063.86,249.1L1049.48,249.1L1081.37,199.878L1052.57,154.412L1069.55,154.412L1089.65,186.667L1110.41,154.412L1124.57,154.412L1097.06,196.789L1129.54,249.1Z" style="fill:rgb(199,211,1);fill-rule:nonzero;"/>
        </g>
    </g>
    <g transform="matrix(1,0,0,1,-70.6552,-20.9338)">
        <path d="M786.912,149.466L786.912,157.216C783.454,157.674 780.454,157.904 777.912,157.904C765.704,157.904 759.6,151.522 759.6,138.758L759.6,100.716L748.412,100.716L748.412,93.029L759.6,93.029L760.037,77.154L769.162,76.279L769.162,93.029L783.287,93.029L783.287,100.716L769.162,100.716L769.162,140.391C769.162,146.899 772.537,150.154 779.287,150.154C781.537,150.154 784.079,149.924 786.912,149.466Z" style="fill:rgb(199,211,1);fill-rule:nonzero;"/>
        <path d="M837.162,137.341L846.287,139.216C844.62,144.609 841.37,149.072 836.537,152.605C831.704,156.137 826.016,157.904 819.475,157.904C810.85,157.904 803.87,154.87 798.537,148.802C793.204,142.734 790.537,134.778 790.537,124.935C790.537,114.884 793.308,106.762 798.85,100.569C804.391,94.375 811.35,91.279 819.725,91.279C827.975,91.279 834.61,94.133 839.631,99.841C844.652,105.549 847.225,114.091 847.35,125.466L801.475,125.466C801.475,135.008 803.475,141.445 807.475,144.779C811.475,148.112 815.704,149.779 820.162,149.779C828.204,149.779 833.87,145.633 837.162,137.341ZM836.6,118.154C836.516,114.612 835.933,111.466 834.85,108.716C833.766,105.966 831.933,103.622 829.35,101.685C826.766,99.747 823.662,98.779 820.037,98.779C815.162,98.779 811.027,100.529 807.631,104.029C804.235,107.529 802.329,112.237 801.912,118.154L836.6,118.154Z" style="fill:rgb(199,211,1);fill-rule:nonzero;"/>
        <path d="M853.6,139.779L862.975,137.841C865.058,145.799 871.641,149.779 882.725,149.779C886.808,149.779 890.266,148.863 893.1,147.032C895.933,145.201 897.35,142.621 897.35,139.292C897.35,134.34 893.744,131.198 886.532,129.867L873.225,127.341C868.016,126.341 863.87,124.383 860.787,121.466C857.704,118.549 856.162,114.695 856.162,109.904C856.162,104.612 858.266,100.185 862.475,96.622C866.683,93.06 872.35,91.279 879.475,91.279C893.183,91.279 901.641,96.633 904.85,107.341L895.85,109.279C893.266,102.695 887.954,99.404 879.912,99.404C875.912,99.404 872.631,100.226 870.068,101.869C867.506,103.513 866.225,105.813 866.225,108.768C866.225,113.429 869.497,116.363 876.041,117.57L888.35,119.779C901.225,122.116 907.662,128.355 907.662,138.496C907.662,144.298 905.266,148.983 900.475,152.551C895.683,156.119 889.308,157.904 881.35,157.904C866.391,157.904 857.141,151.862 853.6,139.779Z" style="fill:rgb(199,211,1);fill-rule:nonzero;"/>
        <path d="M950.1,149.466L950.1,157.216C946.641,157.674 943.641,157.904 941.1,157.904C928.891,157.904 922.787,151.522 922.787,138.758L922.787,100.716L911.6,100.716L911.6,93.029L922.787,93.029L923.225,77.154L932.35,76.279L932.35,93.029L946.475,93.029L946.475,100.716L932.35,100.716L932.35,140.391C932.35,146.899 935.725,150.154 942.475,150.154C944.725,150.154 947.266,149.924 950.1,149.466Z" style="fill:rgb(199,211,1);fill-rule:nonzero;"/>
        <path d="M1053.24,70.841L1032.7,156.154L1022,156.154L1003.38,89.966L986.108,156.154L975.117,156.154L953.459,70.841L964.55,70.841L981.631,139.966L999.734,70.841L1008.43,70.841L1027.94,139.966L1043.85,70.841L1053.24,70.841Z" style="fill:rgb(199,211,1);fill-rule:nonzero;"/>
        <path d="M1111.54,156.154L1101.85,156.154C1101.48,154.154 1101.1,150.362 1100.73,144.779C1096.39,153.529 1089.02,157.904 1078.6,157.904C1071.52,157.904 1066.08,156.026 1062.29,152.27C1058.5,148.514 1056.6,144.007 1056.6,138.749C1056.6,132.365 1059.31,127.117 1064.72,123.007C1070.14,118.896 1079.35,116.841 1092.35,116.841C1094.1,116.841 1096.89,116.924 1100.73,117.091C1100.73,112.091 1100.34,108.477 1099.57,106.247C1098.8,104.018 1097.16,102.237 1094.66,100.904C1092.16,99.57 1088.87,98.904 1084.79,98.904C1074.83,98.904 1069.04,102.695 1067.41,110.279L1058.35,108.716C1060.56,97.091 1069.85,91.279 1086.22,91.279C1094.93,91.279 1101.11,93.206 1104.76,97.06C1108.4,100.914 1110.23,107.591 1110.23,117.091L1110.23,143.904C1110.23,148.362 1110.66,152.445 1111.54,156.154ZM1100.73,124.591C1096.73,124.341 1093.68,124.216 1091.6,124.216C1083.85,124.216 1077.83,125.49 1073.54,128.037C1069.25,130.585 1067.1,134.302 1067.1,139.189C1067.1,142.28 1068.26,144.911 1070.57,147.083C1072.88,149.255 1076.22,150.341 1080.6,150.341C1086.52,150.341 1091.38,148.19 1095.19,143.888C1099.01,139.586 1100.91,134.532 1100.91,128.726C1100.91,127.557 1100.85,126.178 1100.73,124.591Z" style="fill:rgb(199,211,1);fill-rule:nonzero;"/>
        <path d="M1139.66,156.154L1129.85,156.154L1129.85,93.029L1138.48,93.029L1138.48,107.779C1141.52,100.82 1144.57,96.31 1147.63,94.247C1150.69,92.185 1153.83,91.154 1157.04,91.154C1158.04,91.154 1159.33,91.237 1160.91,91.404L1160.91,100.779L1158.91,100.779C1153.5,100.779 1149,102.799 1145.41,106.841C1141.83,110.883 1139.91,116.195 1139.66,122.779L1139.66,156.154Z" style="fill:rgb(199,211,1);fill-rule:nonzero;"/>
        <path d="M1213.73,137.341L1222.85,139.216C1221.18,144.609 1217.93,149.072 1213.1,152.605C1208.27,156.137 1202.58,157.904 1196.04,157.904C1187.41,157.904 1180.43,154.87 1175.1,148.802C1169.77,142.734 1167.1,134.778 1167.1,124.935C1167.1,114.884 1169.87,106.762 1175.41,100.569C1180.95,94.375 1187.91,91.279 1196.29,91.279C1204.54,91.279 1211.17,94.133 1216.19,99.841C1221.21,105.549 1223.79,114.091 1223.91,125.466L1178.04,125.466C1178.04,135.008 1180.04,141.445 1184.04,144.779C1188.04,148.112 1192.27,149.779 1196.73,149.779C1204.77,149.779 1210.43,145.633 1213.73,137.341ZM1213.16,118.154C1213.08,114.612 1212.5,111.466 1211.41,108.716C1210.33,105.966 1208.5,103.622 1205.91,101.685C1203.33,99.747 1200.23,98.779 1196.6,98.779C1191.73,98.779 1187.59,100.529 1184.19,104.029C1180.8,107.529 1178.89,112.237 1178.48,118.154L1213.16,118.154Z" style="fill:rgb(199,211,1);fill-rule:nonzero;"/>
    </g>
</svg>
